<svg width="163" height="24" viewBox="0 0 163 24" fill="none" xmlns="http://www.w3.org/2000/svg">
<rect width="163" height="24" rx="4" fill="#2CA01C"/>
<path d="M24.3587 8.584C23.6867 7.696 22.3787 7.288 21.2747 7.288C18.6587 7.288 16.6667 9.004 16.6667 11.728C16.6667 14.38 18.5507 16.216 21.2027 16.216C22.6427 16.216 23.7467 15.664 24.4907 14.728L23.2787 13.876C22.8467 14.464 22.1267 14.86 21.2147 14.86C19.4627 14.86 18.3347 13.576 18.3347 11.728C18.3347 9.976 19.5227 8.62 21.2747 8.62C21.9587 8.62 22.7627 8.884 23.2067 9.496L24.3587 8.584ZM24.8815 13.096C24.8815 14.908 26.2735 16.168 28.0135 16.168C29.7535 16.168 31.1455 14.908 31.1455 13.096C31.1455 11.284 29.7535 10.072 28.0135 10.072C26.2735 10.072 24.8815 11.284 24.8815 13.096ZM26.3455 13.096C26.3455 12.196 26.8735 11.248 28.0135 11.248C29.1535 11.248 29.6815 12.196 29.6815 13.096C29.6815 13.996 29.1535 14.968 28.0135 14.968C26.8735 14.968 26.3455 13.996 26.3455 13.096ZM32.5417 16H33.9817V12.832C33.9817 12.064 34.4137 11.272 35.3257 11.272C36.2497 11.272 36.4057 12.124 36.4057 12.808V16H37.8457V12.4C37.8457 11.224 37.2217 10.072 35.7217 10.072C34.8697 10.072 34.1857 10.588 33.9337 11.164H33.9097V10.24H32.5417V16ZM39.5261 16H40.9661V12.832C40.9661 12.064 41.3981 11.272 42.3101 11.272C43.2341 11.272 43.3901 12.124 43.3901 12.808V16H44.8301V12.4C44.8301 11.224 44.2061 10.072 42.7061 10.072C41.8541 10.072 41.1701 10.588 40.9181 11.164H40.8941V10.24H39.5261V16ZM47.6145 12.544C47.6745 11.74 48.3585 11.152 49.2105 11.152C50.1465 11.152 50.5665 11.8 50.5665 12.544H47.6145ZM52.0065 13.192C52.0065 11.116 50.8305 10.072 49.2225 10.072C47.4825 10.072 46.1745 11.296 46.1745 13.156C46.1745 15.028 47.4945 16.168 49.2705 16.168C50.3625 16.168 51.1785 15.784 51.7425 15.016L50.7825 14.248C50.4585 14.704 49.9785 14.992 49.2585 14.992C48.4185 14.992 47.6745 14.392 47.6145 13.576H51.9945C52.0065 13.444 52.0065 13.324 52.0065 13.192ZM58.3211 10.972C57.8651 10.408 56.9891 10.072 56.1491 10.072C54.4571 10.072 53.0651 11.248 53.0651 13.12C53.0651 15.04 54.4811 16.168 56.1851 16.168C57.0371 16.168 57.8291 15.88 58.3091 15.364L57.4091 14.452C57.1331 14.788 56.6411 14.968 56.1971 14.968C55.1051 14.968 54.5651 14.02 54.5651 13.12C54.5651 12.22 55.0931 11.272 56.1491 11.272C56.6171 11.272 57.1091 11.512 57.3371 11.836L58.3211 10.972ZM59.4405 11.392V14.08C59.4405 15.184 59.7885 16.12 61.3125 16.12C61.6365 16.12 62.0205 16.06 62.2725 15.964L62.2245 14.836C62.0565 14.92 61.8045 14.956 61.6125 14.956C60.9765 14.956 60.8565 14.584 60.8565 14.068V11.392H62.2965V10.24H60.8565V8.572H59.4405V10.24H58.4325V11.392H59.4405ZM66.5186 11.392V14.08C66.5186 15.184 66.8666 16.12 68.3906 16.12C68.7146 16.12 69.0986 16.06 69.3506 15.964L69.3026 14.836C69.1346 14.92 68.8826 14.956 68.6906 14.956C68.0546 14.956 67.9346 14.584 67.9346 14.068V11.392H69.3746V10.24H67.9346V8.572H66.5186V10.24H65.5106V11.392H66.5186ZM70.0807 13.096C70.0807 14.908 71.4727 16.168 73.2127 16.168C74.9527 16.168 76.3447 14.908 76.3447 13.096C76.3447 11.284 74.9527 10.072 73.2127 10.072C71.4727 10.072 70.0807 11.284 70.0807 13.096ZM71.5447 13.096C71.5447 12.196 72.0727 11.248 73.2127 11.248C74.3527 11.248 74.8807 12.196 74.8807 13.096C74.8807 13.996 74.3527 14.968 73.2127 14.968C72.0727 14.968 71.5447 13.996 71.5447 13.096ZM89.969 14.776H87.869V14.752C88.625 14.212 89.381 13.168 89.381 11.644C89.381 9.064 87.473 7.288 84.869 7.288C82.265 7.288 80.321 9.064 80.321 11.644C80.321 14.404 82.133 16 84.845 16H89.969V14.776ZM84.869 8.644C86.585 8.644 87.737 9.916 87.737 11.644C87.737 13.456 86.525 14.68 84.845 14.68C83.141 14.68 81.977 13.456 81.977 11.644C81.977 9.916 83.225 8.644 84.869 8.644ZM96.2157 10.24H94.7757V13.408C94.7757 14.176 94.3437 14.968 93.4317 14.968C92.5077 14.968 92.3517 14.116 92.3517 13.432V10.24H90.9117V13.84C90.9117 15.016 91.5357 16.168 93.0357 16.168C93.8877 16.168 94.5717 15.652 94.8237 15.076H94.8477V16H96.2157V10.24ZM97.9681 16H99.4081V10.24H97.9681V16ZM97.7641 8.284C97.7641 8.74 98.1481 9.148 98.6761 9.148C99.2041 9.148 99.6121 8.776 99.6121 8.284C99.6121 7.792 99.2041 7.42 98.6761 7.42C98.1481 7.42 97.7641 7.828 97.7641 8.284ZM106.075 10.972C105.619 10.408 104.743 10.072 103.903 10.072C102.211 10.072 100.819 11.248 100.819 13.12C100.819 15.04 102.235 16.168 103.939 16.168C104.791 16.168 105.583 15.88 106.063 15.364L105.163 14.452C104.887 14.788 104.395 14.968 103.951 14.968C102.859 14.968 102.319 14.02 102.319 13.12C102.319 12.22 102.847 11.272 103.903 11.272C104.371 11.272 104.863 11.512 105.091 11.836L106.075 10.972ZM107.038 16H108.478V13.048H108.514L110.794 16H112.702L110.05 12.844L112.546 10.24H110.698L108.514 12.664H108.478V6.928H107.038V16ZM113.602 16H116.662C118.27 16 119.878 15.376 119.878 13.528C119.878 12.388 119.11 11.668 118.042 11.524V11.5C118.918 11.236 119.518 10.6 119.518 9.64C119.518 8.092 118.198 7.504 116.914 7.504H113.602V16ZM115.114 8.752H116.326C117.466 8.752 118.006 9.052 118.006 9.808C118.006 10.54 117.466 10.96 116.458 10.96H115.114V8.752ZM115.114 12.256H116.53C117.754 12.256 118.366 12.568 118.366 13.456C118.366 14.572 117.25 14.728 116.47 14.728H115.114V12.256ZM120.964 13.096C120.964 14.908 122.356 16.168 124.096 16.168C125.836 16.168 127.228 14.908 127.228 13.096C127.228 11.284 125.836 10.072 124.096 10.072C122.356 10.072 120.964 11.284 120.964 13.096ZM122.428 13.096C122.428 12.196 122.956 11.248 124.096 11.248C125.236 11.248 125.764 12.196 125.764 13.096C125.764 13.996 125.236 14.968 124.096 14.968C122.956 14.968 122.428 13.996 122.428 13.096ZM128.288 13.096C128.288 14.908 129.68 16.168 131.42 16.168C133.16 16.168 134.552 14.908 134.552 13.096C134.552 11.284 133.16 10.072 131.42 10.072C129.68 10.072 128.288 11.284 128.288 13.096ZM129.752 13.096C129.752 12.196 130.28 11.248 131.42 11.248C132.56 11.248 133.088 12.196 133.088 13.096C133.088 13.996 132.56 14.968 131.42 14.968C130.28 14.968 129.752 13.996 129.752 13.096ZM135.972 16H137.412V13.048H137.448L139.728 16H141.636L138.984 12.844L141.48 10.24H139.632L137.448 12.664H137.412V6.928H135.972V16ZM146.485 10.948C146.017 10.36 145.153 10.072 144.325 10.072C143.185 10.072 142.033 10.624 142.033 11.908C142.033 12.988 142.885 13.336 143.737 13.54C144.613 13.744 145.057 13.888 145.057 14.368C145.057 14.884 144.553 15.052 144.133 15.052C143.509 15.052 142.969 14.74 142.657 14.332L141.709 15.22C142.261 15.832 143.185 16.168 144.073 16.168C145.333 16.168 146.473 15.652 146.473 14.248C146.473 13.12 145.465 12.736 144.613 12.532C143.809 12.34 143.365 12.22 143.365 11.776C143.365 11.32 143.833 11.152 144.289 11.152C144.817 11.152 145.297 11.44 145.549 11.776L146.485 10.948Z" fill="white"/>
</svg>
